<mxfile host="app.diagrams.net" modified="2023-08-22T03:13:22.448Z" agent="Mozilla/5.0 (Windows NT 10.0; Win64; x64) AppleWebKit/537.36 (KHTML, like Gecko) Chrome/115.0.0.0 Safari/537.36 Edg/115.0.1901.203" etag="T4zgboMIx9sw-FUCn-2L" version="21.6.8" type="github">
  <diagram id="C5RBs43oDa-KdzZeNtuy" name="Page-1">
    <mxGraphModel dx="2096" dy="745" grid="1" gridSize="10" guides="1" tooltips="1" connect="1" arrows="1" fold="1" page="1" pageScale="1" pageWidth="827" pageHeight="1169" math="0" shadow="0">
      <root>
        <mxCell id="WIyWlLk6GJQsqaUBKTNV-0" />
        <mxCell id="WIyWlLk6GJQsqaUBKTNV-1" parent="WIyWlLk6GJQsqaUBKTNV-0" />
        <mxCell id="i2zAT8uLqf2cpt_VYych-0" value="ClassVehiculo" style="swimlane;fontStyle=1;align=center;verticalAlign=top;childLayout=stackLayout;horizontal=1;startSize=36;horizontalStack=0;resizeParent=1;resizeParentMax=0;resizeLast=0;collapsible=1;marginBottom=0;whiteSpace=wrap;html=1;labelBackgroundColor=none;fillColor=#F694C1;strokeColor=#AF45ED;fontColor=#095C86;rounded=1;fontSize=15;arcSize=25;" vertex="1" parent="WIyWlLk6GJQsqaUBKTNV-1">
          <mxGeometry x="112" y="530" width="228" height="334" as="geometry">
            <mxRectangle x="330" y="190" width="120" height="30" as="alternateBounds" />
          </mxGeometry>
        </mxCell>
        <mxCell id="i2zAT8uLqf2cpt_VYych-1" value="&lt;font style=&quot;font-size: 14px;&quot;&gt;- ruedas: int;&lt;/font&gt;" style="text;strokeColor=none;fillColor=none;align=left;verticalAlign=top;spacingLeft=4;spacingRight=4;overflow=hidden;rotatable=0;points=[[0,0.5],[1,0.5]];portConstraint=eastwest;whiteSpace=wrap;html=1;labelBackgroundColor=none;fontColor=#095C86;rounded=1;" vertex="1" parent="i2zAT8uLqf2cpt_VYych-0">
          <mxGeometry y="36" width="228" height="26" as="geometry" />
        </mxCell>
        <mxCell id="i2zAT8uLqf2cpt_VYych-2" value="&lt;font style=&quot;font-size: 14px;&quot;&gt;- marca:&amp;nbsp;String;&lt;/font&gt;" style="text;strokeColor=none;fillColor=none;align=left;verticalAlign=top;spacingLeft=4;spacingRight=4;overflow=hidden;rotatable=0;points=[[0,0.5],[1,0.5]];portConstraint=eastwest;whiteSpace=wrap;html=1;labelBackgroundColor=none;fontColor=#095C86;rounded=1;" vertex="1" parent="i2zAT8uLqf2cpt_VYych-0">
          <mxGeometry y="62" width="228" height="26" as="geometry" />
        </mxCell>
        <mxCell id="i2zAT8uLqf2cpt_VYych-3" value="&lt;font style=&quot;font-size: 14px;&quot;&gt;-&amp;nbsp; modelo:&amp;nbsp;String;&lt;/font&gt;" style="text;strokeColor=none;fillColor=none;align=left;verticalAlign=top;spacingLeft=4;spacingRight=4;overflow=hidden;rotatable=0;points=[[0,0.5],[1,0.5]];portConstraint=eastwest;whiteSpace=wrap;html=1;labelBackgroundColor=none;fontColor=#095C86;rounded=1;" vertex="1" parent="i2zAT8uLqf2cpt_VYych-0">
          <mxGeometry y="88" width="228" height="24" as="geometry" />
        </mxCell>
        <mxCell id="i2zAT8uLqf2cpt_VYych-4" value="" style="line;strokeWidth=1;fillColor=none;align=left;verticalAlign=middle;spacingTop=-1;spacingLeft=3;spacingRight=3;rotatable=0;labelPosition=right;points=[];portConstraint=eastwest;strokeColor=#AF45ED;labelBackgroundColor=none;fontColor=#095C86;rounded=1;" vertex="1" parent="i2zAT8uLqf2cpt_VYych-0">
          <mxGeometry y="112" width="228" height="8" as="geometry" />
        </mxCell>
        <mxCell id="i2zAT8uLqf2cpt_VYych-5" value="&lt;font color=&quot;#095c86&quot; style=&quot;font-size: 14px;&quot;&gt;+&amp;nbsp;Vehiculo(int ruedas, String marca, String modelo)&amp;nbsp;&lt;/font&gt;" style="text;strokeColor=none;fillColor=none;align=left;verticalAlign=top;spacingLeft=4;spacingRight=4;overflow=hidden;rotatable=0;points=[[0,0.5],[1,0.5]];portConstraint=eastwest;whiteSpace=wrap;html=1;" vertex="1" parent="i2zAT8uLqf2cpt_VYych-0">
          <mxGeometry y="120" width="228" height="58" as="geometry" />
        </mxCell>
        <mxCell id="i2zAT8uLqf2cpt_VYych-6" value="&lt;font style=&quot;font-size: 14px;&quot;&gt;+&amp;nbsp;&amp;nbsp;obtener_informacion();&lt;br&gt;&lt;br&gt;&lt;/font&gt;" style="text;strokeColor=none;fillColor=none;align=left;verticalAlign=top;spacingLeft=4;spacingRight=4;overflow=hidden;rotatable=0;points=[[0,0.5],[1,0.5]];portConstraint=eastwest;whiteSpace=wrap;html=1;labelBackgroundColor=none;fontColor=#095C86;rounded=1;" vertex="1" parent="i2zAT8uLqf2cpt_VYych-0">
          <mxGeometry y="178" width="228" height="36" as="geometry" />
        </mxCell>
        <mxCell id="i2zAT8uLqf2cpt_VYych-7" value="&lt;font color=&quot;#095c86&quot; style=&quot;font-size: 14px;&quot;&gt;&amp;nbsp;+&amp;nbsp; getRuedas(int);&lt;/font&gt;" style="text;strokeColor=none;fillColor=none;align=left;verticalAlign=top;spacingLeft=4;spacingRight=4;overflow=hidden;rotatable=0;points=[[0,0.5],[1,0.5]];portConstraint=eastwest;whiteSpace=wrap;html=1;" vertex="1" parent="i2zAT8uLqf2cpt_VYych-0">
          <mxGeometry y="214" width="228" height="36" as="geometry" />
        </mxCell>
        <mxCell id="i2zAT8uLqf2cpt_VYych-8" value="&lt;font color=&quot;#095c86&quot;&gt;&lt;font style=&quot;font-size: 14px;&quot;&gt;+&amp;nbsp;getMarca(&lt;/font&gt;String&lt;font style=&quot;font-size: 14px;&quot;&gt;);&lt;/font&gt;&lt;/font&gt;" style="text;strokeColor=none;fillColor=none;align=left;verticalAlign=top;spacingLeft=4;spacingRight=4;overflow=hidden;rotatable=0;points=[[0,0.5],[1,0.5]];portConstraint=eastwest;whiteSpace=wrap;html=1;" vertex="1" parent="i2zAT8uLqf2cpt_VYych-0">
          <mxGeometry y="250" width="228" height="36" as="geometry" />
        </mxCell>
        <mxCell id="i2zAT8uLqf2cpt_VYych-9" value="&lt;font color=&quot;#095c86&quot;&gt;&lt;font style=&quot;font-size: 14px;&quot;&gt;+&amp;nbsp; getModelo(&lt;/font&gt;String&lt;font style=&quot;font-size: 14px;&quot;&gt;);&lt;/font&gt;&lt;/font&gt;" style="text;strokeColor=none;fillColor=none;align=left;verticalAlign=top;spacingLeft=4;spacingRight=4;overflow=hidden;rotatable=0;points=[[0,0.5],[1,0.5]];portConstraint=eastwest;whiteSpace=wrap;html=1;" vertex="1" parent="i2zAT8uLqf2cpt_VYych-0">
          <mxGeometry y="286" width="228" height="48" as="geometry" />
        </mxCell>
        <mxCell id="i2zAT8uLqf2cpt_VYych-10" value="ClassAutomovil" style="swimlane;fontStyle=1;align=center;verticalAlign=top;childLayout=stackLayout;horizontal=1;startSize=36;horizontalStack=0;resizeParent=1;resizeParentMax=0;resizeLast=0;collapsible=1;marginBottom=0;whiteSpace=wrap;html=1;labelBackgroundColor=none;fillColor=#F694C1;strokeColor=#AF45ED;fontColor=#095C86;rounded=1;fontSize=14;" vertex="1" parent="WIyWlLk6GJQsqaUBKTNV-1">
          <mxGeometry x="-140" y="974" width="288" height="230" as="geometry" />
        </mxCell>
        <mxCell id="i2zAT8uLqf2cpt_VYych-11" value="&lt;font style=&quot;font-size: 14px;&quot;&gt;-numero_puertas: int;&lt;/font&gt;" style="text;strokeColor=none;fillColor=none;align=left;verticalAlign=top;spacingLeft=4;spacingRight=4;overflow=hidden;rotatable=0;points=[[0,0.5],[1,0.5]];portConstraint=eastwest;whiteSpace=wrap;html=1;labelBackgroundColor=none;fontColor=#095C86;rounded=1;" vertex="1" parent="i2zAT8uLqf2cpt_VYych-10">
          <mxGeometry y="36" width="288" height="34" as="geometry" />
        </mxCell>
        <mxCell id="i2zAT8uLqf2cpt_VYych-12" value="&lt;font style=&quot;font-size: 14px;&quot;&gt;-tipo_combustible:String;&lt;/font&gt;" style="text;strokeColor=none;fillColor=none;align=left;verticalAlign=top;spacingLeft=4;spacingRight=4;overflow=hidden;rotatable=0;points=[[0,0.5],[1,0.5]];portConstraint=eastwest;whiteSpace=wrap;html=1;labelBackgroundColor=none;fontColor=#095C86;rounded=1;" vertex="1" parent="i2zAT8uLqf2cpt_VYych-10">
          <mxGeometry y="70" width="288" height="26" as="geometry" />
        </mxCell>
        <mxCell id="i2zAT8uLqf2cpt_VYych-13" value="" style="line;strokeWidth=1;fillColor=none;align=left;verticalAlign=middle;spacingTop=-1;spacingLeft=3;spacingRight=3;rotatable=0;labelPosition=right;points=[];portConstraint=eastwest;strokeColor=#AF45ED;labelBackgroundColor=none;fontColor=#095C86;rounded=1;" vertex="1" parent="i2zAT8uLqf2cpt_VYych-10">
          <mxGeometry y="96" width="288" height="8" as="geometry" />
        </mxCell>
        <mxCell id="i2zAT8uLqf2cpt_VYych-14" value="&lt;font color=&quot;#095c86&quot; style=&quot;font-size: 14px;&quot;&gt;+Automovil (int ruedas, String marca, String modelo, int numeroPuertas, String tipoCombustible) ;&lt;/font&gt;" style="text;strokeColor=none;fillColor=none;align=left;verticalAlign=top;spacingLeft=4;spacingRight=4;overflow=hidden;rotatable=0;points=[[0,0.5],[1,0.5]];portConstraint=eastwest;whiteSpace=wrap;html=1;" vertex="1" parent="i2zAT8uLqf2cpt_VYych-10">
          <mxGeometry y="104" width="288" height="62" as="geometry" />
        </mxCell>
        <mxCell id="i2zAT8uLqf2cpt_VYych-15" value="&lt;font style=&quot;font-size: 14px;&quot;&gt;+obtenerInformacion();&lt;/font&gt;" style="text;strokeColor=none;fillColor=none;align=left;verticalAlign=top;spacingLeft=4;spacingRight=4;overflow=hidden;rotatable=0;points=[[0,0.5],[1,0.5]];portConstraint=eastwest;whiteSpace=wrap;html=1;labelBackgroundColor=none;fontColor=#095C86;rounded=1;" vertex="1" parent="i2zAT8uLqf2cpt_VYych-10">
          <mxGeometry y="166" width="288" height="26" as="geometry" />
        </mxCell>
        <mxCell id="i2zAT8uLqf2cpt_VYych-16" value="&lt;font style=&quot;font-size: 14px;&quot;&gt;+ conducir();&lt;/font&gt;" style="text;strokeColor=none;fillColor=none;align=left;verticalAlign=top;spacingLeft=4;spacingRight=4;overflow=hidden;rotatable=0;points=[[0,0.5],[1,0.5]];portConstraint=eastwest;whiteSpace=wrap;html=1;labelBackgroundColor=none;fontColor=#095C86;rounded=1;" vertex="1" parent="i2zAT8uLqf2cpt_VYych-10">
          <mxGeometry y="192" width="288" height="38" as="geometry" />
        </mxCell>
        <mxCell id="i2zAT8uLqf2cpt_VYych-17" value="&lt;font style=&quot;font-size: 14px;&quot;&gt;ClassMotocicleta&lt;/font&gt;" style="swimlane;fontStyle=1;align=center;verticalAlign=top;childLayout=stackLayout;horizontal=1;startSize=36;horizontalStack=0;resizeParent=1;resizeParentMax=0;resizeLast=0;collapsible=1;marginBottom=0;whiteSpace=wrap;html=1;labelBackgroundColor=none;fillColor=#F694C1;strokeColor=#AF45ED;fontColor=#095C86;rounded=1;" vertex="1" parent="WIyWlLk6GJQsqaUBKTNV-1">
          <mxGeometry x="280" y="974" width="240" height="226" as="geometry" />
        </mxCell>
        <mxCell id="i2zAT8uLqf2cpt_VYych-18" value="&lt;font style=&quot;font-size: 14px;&quot;&gt;-cilindrada: int&lt;/font&gt;" style="text;strokeColor=none;fillColor=none;align=left;verticalAlign=top;spacingLeft=4;spacingRight=4;overflow=hidden;rotatable=0;points=[[0,0.5],[1,0.5]];portConstraint=eastwest;whiteSpace=wrap;html=1;labelBackgroundColor=none;fontColor=#095C86;rounded=1;" vertex="1" parent="i2zAT8uLqf2cpt_VYych-17">
          <mxGeometry y="36" width="240" height="22" as="geometry" />
        </mxCell>
        <mxCell id="i2zAT8uLqf2cpt_VYych-19" value="&lt;font style=&quot;font-size: 14px;&quot;&gt;-tipoManejo:&amp;nbsp;String;&lt;/font&gt;" style="text;strokeColor=none;fillColor=none;align=left;verticalAlign=top;spacingLeft=4;spacingRight=4;overflow=hidden;rotatable=0;points=[[0,0.5],[1,0.5]];portConstraint=eastwest;whiteSpace=wrap;html=1;labelBackgroundColor=none;fontColor=#095C86;rounded=1;" vertex="1" parent="i2zAT8uLqf2cpt_VYych-17">
          <mxGeometry y="58" width="240" height="26" as="geometry" />
        </mxCell>
        <mxCell id="i2zAT8uLqf2cpt_VYych-20" value="" style="line;strokeWidth=1;fillColor=none;align=left;verticalAlign=middle;spacingTop=-1;spacingLeft=3;spacingRight=3;rotatable=0;labelPosition=right;points=[];portConstraint=eastwest;strokeColor=#AF45ED;labelBackgroundColor=none;fontColor=#095C86;rounded=1;" vertex="1" parent="i2zAT8uLqf2cpt_VYych-17">
          <mxGeometry y="84" width="240" height="8" as="geometry" />
        </mxCell>
        <mxCell id="i2zAT8uLqf2cpt_VYych-21" value="&lt;font style=&quot;font-size: 14px;&quot; color=&quot;#095c86&quot;&gt;+Motocicleta(int ruedas, String marca, String modelo, int cilindrada, String tipoManejo);&lt;/font&gt;" style="text;strokeColor=none;fillColor=none;align=left;verticalAlign=top;spacingLeft=4;spacingRight=4;overflow=hidden;rotatable=0;points=[[0,0.5],[1,0.5]];portConstraint=eastwest;whiteSpace=wrap;html=1;" vertex="1" parent="i2zAT8uLqf2cpt_VYych-17">
          <mxGeometry y="92" width="240" height="62" as="geometry" />
        </mxCell>
        <mxCell id="i2zAT8uLqf2cpt_VYych-22" value="&lt;font style=&quot;font-size: 14px;&quot;&gt;+obtenerInformacion();&lt;/font&gt;" style="text;strokeColor=none;fillColor=none;align=left;verticalAlign=top;spacingLeft=4;spacingRight=4;overflow=hidden;rotatable=0;points=[[0,0.5],[1,0.5]];portConstraint=eastwest;whiteSpace=wrap;html=1;labelBackgroundColor=none;fontColor=#095C86;rounded=1;" vertex="1" parent="i2zAT8uLqf2cpt_VYych-17">
          <mxGeometry y="154" width="240" height="26" as="geometry" />
        </mxCell>
        <mxCell id="i2zAT8uLqf2cpt_VYych-23" value="&lt;font style=&quot;font-size: 14px;&quot;&gt;+conducir();&lt;/font&gt;" style="text;strokeColor=none;fillColor=none;align=left;verticalAlign=top;spacingLeft=4;spacingRight=4;overflow=hidden;rotatable=0;points=[[0,0.5],[1,0.5]];portConstraint=eastwest;whiteSpace=wrap;html=1;labelBackgroundColor=none;fontColor=#095C86;rounded=1;" vertex="1" parent="i2zAT8uLqf2cpt_VYych-17">
          <mxGeometry y="180" width="240" height="46" as="geometry" />
        </mxCell>
        <mxCell id="i2zAT8uLqf2cpt_VYych-24" value="&lt;p style=&quot;margin: 4px 0px 0px; text-align: center; font-size: 14px;&quot;&gt;&lt;i style=&quot;font-size: 14px;&quot;&gt;&amp;lt;&amp;lt;Interface&amp;gt;&amp;gt;&lt;/i&gt;&lt;br style=&quot;font-size: 14px;&quot;&gt;&lt;b style=&quot;font-size: 14px;&quot;&gt;Conducible&lt;/b&gt;&lt;br style=&quot;font-size: 14px;&quot;&gt;&lt;/p&gt;&lt;hr style=&quot;font-size: 14px;&quot;&gt;&lt;p style=&quot;margin: 0px 0px 0px 4px; font-size: 14px;&quot;&gt;+ mensaje: String;&lt;br style=&quot;font-size: 14px;&quot;&gt;&lt;br style=&quot;font-size: 14px;&quot;&gt;&lt;/p&gt;&lt;hr style=&quot;font-size: 14px;&quot;&gt;&lt;p style=&quot;margin: 0px 0px 0px 4px; font-size: 14px;&quot;&gt;+ conducir();&lt;br style=&quot;font-size: 14px;&quot;&gt;&lt;/p&gt;" style="verticalAlign=top;align=left;overflow=fill;fontSize=14;fontFamily=Helvetica;html=1;whiteSpace=wrap;labelBackgroundColor=none;fillColor=#F694C1;strokeColor=#AF45ED;fontColor=#095C86;rounded=1;arcSize=17;" vertex="1" parent="WIyWlLk6GJQsqaUBKTNV-1">
          <mxGeometry x="98" y="1274" width="190" height="144" as="geometry" />
        </mxCell>
        <mxCell id="i2zAT8uLqf2cpt_VYych-25" value="&lt;font style=&quot;font-size: 14px;&quot;&gt;ClassPropietario&lt;/font&gt;" style="swimlane;fontStyle=1;align=center;verticalAlign=top;childLayout=stackLayout;horizontal=1;startSize=32;horizontalStack=0;resizeParent=1;resizeParentMax=0;resizeLast=0;collapsible=1;marginBottom=0;whiteSpace=wrap;html=1;labelBackgroundColor=none;fillColor=#F694C1;strokeColor=#AF45ED;fontColor=#095C86;rounded=1;fontSize=14;" vertex="1" parent="WIyWlLk6GJQsqaUBKTNV-1">
          <mxGeometry x="520" y="554" width="276" height="230" as="geometry" />
        </mxCell>
        <mxCell id="i2zAT8uLqf2cpt_VYych-26" value="-&amp;nbsp; nombre: String;" style="text;strokeColor=none;fillColor=none;align=left;verticalAlign=top;spacingLeft=4;spacingRight=4;overflow=hidden;rotatable=0;points=[[0,0.5],[1,0.5]];portConstraint=eastwest;whiteSpace=wrap;html=1;labelBackgroundColor=none;fontColor=#095C86;rounded=1;fontSize=14;" vertex="1" parent="i2zAT8uLqf2cpt_VYych-25">
          <mxGeometry y="32" width="276" height="26" as="geometry" />
        </mxCell>
        <mxCell id="i2zAT8uLqf2cpt_VYych-27" value="-&amp;nbsp; apellido: String;" style="text;strokeColor=none;fillColor=none;align=left;verticalAlign=top;spacingLeft=4;spacingRight=4;overflow=hidden;rotatable=0;points=[[0,0.5],[1,0.5]];portConstraint=eastwest;whiteSpace=wrap;html=1;labelBackgroundColor=none;fontColor=#095C86;rounded=1;fontSize=14;" vertex="1" parent="i2zAT8uLqf2cpt_VYych-25">
          <mxGeometry y="58" width="276" height="26" as="geometry" />
        </mxCell>
        <mxCell id="i2zAT8uLqf2cpt_VYych-28" value="-&amp;nbsp;&amp;nbsp;vehículo: Vehículo;" style="text;strokeColor=none;fillColor=none;align=left;verticalAlign=top;spacingLeft=4;spacingRight=4;overflow=hidden;rotatable=0;points=[[0,0.5],[1,0.5]];portConstraint=eastwest;whiteSpace=wrap;html=1;labelBackgroundColor=none;fontColor=#095C86;rounded=1;fontSize=14;" vertex="1" parent="i2zAT8uLqf2cpt_VYych-25">
          <mxGeometry y="84" width="276" height="26" as="geometry" />
        </mxCell>
        <mxCell id="i2zAT8uLqf2cpt_VYych-29" value="" style="line;strokeWidth=1;fillColor=none;align=left;verticalAlign=middle;spacingTop=-1;spacingLeft=3;spacingRight=3;rotatable=0;labelPosition=right;points=[];portConstraint=eastwest;strokeColor=#AF45ED;labelBackgroundColor=none;fontColor=#095C86;rounded=1;" vertex="1" parent="i2zAT8uLqf2cpt_VYych-25">
          <mxGeometry y="110" width="276" height="8" as="geometry" />
        </mxCell>
        <mxCell id="i2zAT8uLqf2cpt_VYych-30" value="&lt;font color=&quot;#095c86&quot; style=&quot;font-size: 14px;&quot;&gt;+Propietario(String nombre, String apellido, Vehiculo vehiculo);&lt;/font&gt;" style="text;strokeColor=none;fillColor=none;align=left;verticalAlign=top;spacingLeft=4;spacingRight=4;overflow=hidden;rotatable=0;points=[[0,0.5],[1,0.5]];portConstraint=eastwest;whiteSpace=wrap;html=1;" vertex="1" parent="i2zAT8uLqf2cpt_VYych-25">
          <mxGeometry y="118" width="276" height="56" as="geometry" />
        </mxCell>
        <mxCell id="i2zAT8uLqf2cpt_VYych-31" value="&lt;font style=&quot;font-size: 15px;&quot;&gt;+ mostrarInformacion();&lt;/font&gt;" style="text;strokeColor=none;fillColor=none;align=left;verticalAlign=top;spacingLeft=4;spacingRight=4;overflow=hidden;rotatable=0;points=[[0,0.5],[1,0.5]];portConstraint=eastwest;whiteSpace=wrap;html=1;labelBackgroundColor=none;fontColor=#095C86;rounded=1;fontSize=14;" vertex="1" parent="i2zAT8uLqf2cpt_VYych-25">
          <mxGeometry y="174" width="276" height="56" as="geometry" />
        </mxCell>
        <mxCell id="i2zAT8uLqf2cpt_VYych-32" value="" style="endArrow=open;endFill=1;endSize=12;html=1;rounded=0;strokeColor=#60E696;fontColor=default;exitX=0.006;exitY=0.065;exitDx=0;exitDy=0;exitPerimeter=0;labelBackgroundColor=none;entryX=0.999;entryY=0.011;entryDx=0;entryDy=0;entryPerimeter=0;fontStyle=1" edge="1" parent="WIyWlLk6GJQsqaUBKTNV-1" source="i2zAT8uLqf2cpt_VYych-25" target="i2zAT8uLqf2cpt_VYych-1">
          <mxGeometry width="160" relative="1" as="geometry">
            <mxPoint x="336" y="550" as="sourcePoint" />
            <mxPoint x="340" y="518" as="targetPoint" />
            <Array as="points" />
          </mxGeometry>
        </mxCell>
        <mxCell id="i2zAT8uLqf2cpt_VYych-33" value="" style="endArrow=block;dashed=1;endFill=0;endSize=12;html=1;rounded=0;strokeColor=#60E696;fontColor=default;entryX=0.326;entryY=0;entryDx=0;entryDy=0;entryPerimeter=0;labelBackgroundColor=none;" edge="1" parent="WIyWlLk6GJQsqaUBKTNV-1" source="i2zAT8uLqf2cpt_VYych-16" target="i2zAT8uLqf2cpt_VYych-24">
          <mxGeometry width="160" relative="1" as="geometry">
            <mxPoint x="16" y="900" as="sourcePoint" />
            <mxPoint x="152" y="970" as="targetPoint" />
            <Array as="points" />
          </mxGeometry>
        </mxCell>
        <mxCell id="i2zAT8uLqf2cpt_VYych-34" value="" style="endArrow=block;dashed=1;endFill=0;endSize=12;html=1;rounded=0;strokeColor=#60E696;fontColor=default;entryX=0.75;entryY=0;entryDx=0;entryDy=0;labelBackgroundColor=none;" edge="1" parent="WIyWlLk6GJQsqaUBKTNV-1" source="i2zAT8uLqf2cpt_VYych-23" target="i2zAT8uLqf2cpt_VYych-24">
          <mxGeometry width="160" relative="1" as="geometry">
            <mxPoint x="-4" y="898" as="sourcePoint" />
            <mxPoint x="186" y="990" as="targetPoint" />
          </mxGeometry>
        </mxCell>
        <mxCell id="i2zAT8uLqf2cpt_VYych-35" value="1...1....1" style="text;html=1;align=center;verticalAlign=middle;resizable=0;points=[];autosize=1;strokeColor=none;fillColor=none;fontColor=#095C86;labelBackgroundColor=none;" vertex="1" parent="WIyWlLk6GJQsqaUBKTNV-1">
          <mxGeometry x="388" y="542" width="70" height="30" as="geometry" />
        </mxCell>
        <mxCell id="i2zAT8uLqf2cpt_VYych-36" value="Extends" style="endArrow=block;endSize=16;endFill=0;html=1;rounded=0;entryX=0.761;entryY=1.011;entryDx=0;entryDy=0;entryPerimeter=0;labelBackgroundColor=none;strokeColor=#60E696;fontColor=default;exitX=0.5;exitY=0;exitDx=0;exitDy=0;" edge="1" parent="WIyWlLk6GJQsqaUBKTNV-1" source="i2zAT8uLqf2cpt_VYych-17" target="i2zAT8uLqf2cpt_VYych-9">
          <mxGeometry width="160" relative="1" as="geometry">
            <mxPoint x="467" y="914" as="sourcePoint" />
            <mxPoint x="352" y="782" as="targetPoint" />
          </mxGeometry>
        </mxCell>
        <mxCell id="i2zAT8uLqf2cpt_VYych-37" value="Extends" style="endArrow=block;endSize=16;endFill=0;html=1;rounded=0;entryX=0.25;entryY=1.102;entryDx=0;entryDy=0;entryPerimeter=0;labelBackgroundColor=none;strokeColor=#60E696;fontColor=default;exitX=0.75;exitY=0;exitDx=0;exitDy=0;" edge="1" parent="WIyWlLk6GJQsqaUBKTNV-1" source="i2zAT8uLqf2cpt_VYych-10" target="i2zAT8uLqf2cpt_VYych-9">
          <mxGeometry width="160" relative="1" as="geometry">
            <mxPoint x="171" y="902" as="sourcePoint" />
            <mxPoint x="56" y="770" as="targetPoint" />
          </mxGeometry>
        </mxCell>
      </root>
    </mxGraphModel>
  </diagram>
</mxfile>
